<svg xmlns="http://www.w3.org/2000/svg" width="734" height="546" viewBox="0 0 734 546" fill="none"><path d="M0.5 0.245605H723.5C729.023 0.245605 733.5 4.72276 733.5 10.2456V535.246C733.5 540.768 729.023 545.246 723.5 545.246H0.5V0.245605Z" fill="#F4F4F5"></path><g opacity="0.12"><path d="M551.441 428.255C519.524 276.94 533.963 167.425 700.659 159.588C790.714 155.352 902.643 230.577 973.009 342.153C981.255 355.22 990.64 367.875 999.805 380.601L1079.17 305.54C1026.51 267.908 974.303 229.53 920.917 193.14C780.543 97.4618 621.193 73.1929 522.951 147.769C442.208 209.056 459.228 314.364 498.467 422.394C509.401 452.522 529.825 491.693 491.619 503.841C479.681 507.627 468.543 504.342 458.348 497.618L523.986 559.584C572.605 534.328 562.297 479.759 551.441 428.255Z" fill="#98A2B3"></path><path d="M405.568 289.961C397.711 110.978 503.425 24.6051 695.805 48.6237C855.681 68.5845 991.455 166.869 1130.04 257.419L1194.02 196.907C1045.78 111.654 890.294 82.9508 737.56 33.8535C479.35 -49.1488 315.653 99.685 398.208 340.559C400.922 348.482 405.211 356.339 408.749 364.218C408.633 357.005 408.713 349.837 408.374 342.583C407.532 325.06 406.335 307.462 405.568 289.961Z" fill="#98A2B3"></path><path d="M615.937 383.516C639.912 473.341 653.336 561.393 581.02 613.422L635.047 664.426C689.014 589.58 687.241 496.11 658.013 392.016C643.068 338.78 647.651 290.12 696.784 269.129C745.966 248.092 796.733 268.78 842.792 315.635C884.688 358.257 897.581 408.683 919.342 456.712L955.098 422.894C940.623 398.916 925.169 375.13 913.103 350.663C871.558 266.438 785.694 209.025 710.667 216.953C630.88 225.388 593.209 298.365 615.937 383.516Z" fill="#98A2B3"></path></g></svg>